<svg xmlns="http://www.w3.org/2000/svg" version="1.1" xmlns:xlink="http://www.w3.org/1999/xlink" xmlns:svgjs="http://svgjs.dev/svgjs" width="1000" height="1000" viewBox="0 0 1000 1000"><rect width="1000" height="1000" fill="#000000"></rect><g transform="matrix(0.7,0,0,0.7,150.39396404471364,192.59910984257795)"><svg viewBox="0 0 281 247" data-background-color="#fefee2" preserveAspectRatio="xMidYMid meet" height="879" width="1000" xmlns="http://www.w3.org/2000/svg" xmlns:xlink="http://www.w3.org/1999/xlink"><g id="tight-bounds" transform="matrix(1,0,0,1,-0.15814831520575012,-0.09999978690601097)"><svg viewBox="0 0 281.3162959796642 247.2" height="247.2" width="281.3162959796642"><g><svg viewBox="0 0 395.52 347.5537869554054" height="247.2" width="281.3162959796642"><g transform="matrix(1,0,0,1,0,209.04906729032768)"><svg viewBox="0 0 395.52 138.50471966507774" height="138.50471966507774" width="395.52"><g id="textblocktransform"><svg viewBox="0 0 395.52 138.50471966507774" height="138.50471966507774" width="395.52" id="textblock"><g><svg viewBox="0 0 395.52 74.70282753515914" height="74.70282753515914" width="395.52"><g transform="matrix(1,0,0,1,0,0)"><svg width="395.52" viewBox="3.1700000762939453 -36.88999938964844 197.88999938964844 37.380001068115234" height="74.70282753515914" data-palette-color="#7fc37e"><path d="M3.17-11.5L3.17-11.5Q3.17-14.36 3.86-16.64 4.54-18.92 5.68-20.37 6.81-21.83 8.35-22.79 9.89-23.75 11.5-24.16 13.11-24.56 14.87-24.56L14.87-24.56Q18.33-24.56 21.63-23.12L21.63-23.12 20.65-20.19Q17.94-21.12 15.36-21.12L15.36-21.12Q14.09-21.12 12.96-20.89 11.84-20.65 10.73-20.04 9.62-19.43 8.83-18.47 8.03-17.5 7.54-15.94 7.06-14.38 7.06-12.35L7.06-12.35Q7.06-10.13 7.57-8.44 8.08-6.74 8.91-5.69 9.74-4.64 10.9-3.98 12.06-3.32 13.24-3.06 14.43-2.81 15.8-2.81L15.8-2.81Q18.09-2.81 20.39-3.61L20.39-3.61 21.36-0.85Q17.9 0.49 14.4 0.49L14.4 0.49Q12.79 0.49 11.32 0.17 9.84-0.15 8.31-0.99 6.79-1.83 5.68-3.13 4.57-4.42 3.87-6.58 3.17-8.74 3.17-11.5ZM39.35-24.58L39.35-24.58Q44.36-24.58 47.59-21.39 50.83-18.19 50.83-12.55L50.83-12.55Q50.83-6.57 47.52-3.04 44.21 0.49 38.96 0.49L38.96 0.49Q33.96 0.49 30.78-2.82 27.61-6.13 27.61-11.79L27.61-11.79Q27.61-17.63 30.84-21.11 34.08-24.58 39.35-24.58ZM39.01-21.17L39.01-21.17Q36.01-21.17 33.76-18.85 31.52-16.53 31.52-12.48L31.52-12.48Q31.52-8.45 33.71-5.69 35.91-2.93 39.4-2.93L39.4-2.93Q42.62-2.93 44.77-5.37 46.92-7.81 46.92-11.74L46.92-11.74Q46.92-13.99 46.23-15.82 45.53-17.65 44.39-18.8 43.26-19.95 41.87-20.56 40.48-21.17 39.01-21.17ZM58.03-30.08L58.03-34.69 62.76-34.69 62.76-30.08 58.03-30.08ZM58.39 0L58.39-24.12 62.4-24.12 62.4 0 58.39 0ZM71.18 0L71.18-24.12 73.99-24.12 74.87-22.07Q79.53-24.61 83.37-24.61L83.37-24.61Q85.34-24.61 86.81-23.99 88.27-23.36 89.08-22.42 89.89-21.48 90.36-20.06 90.84-18.63 90.97-17.33 91.11-16.04 91.11-14.38L91.11-14.38 91.11 0 87.1 0 87.1-14.65Q87.1-21 81.63-21L81.63-21Q78.8-21 75.19-19.12L75.19-19.12 75.19 0 71.18 0ZM100.14 0L100.14-36.89 104.14-36.89 104.14-22.97Q107.29-24.61 110.59-24.61L110.59-24.61Q112.05-24.61 113.47-24.26 114.88-23.9 116.31-23.01 117.74-22.12 118.81-20.78 119.89-19.43 120.56-17.26 121.23-15.09 121.23-12.35L121.23-12.35Q121.23-6.4 118.07-2.95 114.91 0.49 109.88 0.49L109.88 0.49Q106.58 0.49 103.41-1.12L103.41-1.12 102.92 0 100.14 0ZM109.22-21.29L109.22-21.29Q106.61-21.29 104.14-20L104.14-20 104.14-3.78Q106.75-2.66 109.29-2.66L109.29-2.66Q110.41-2.66 111.46-2.91 112.51-3.15 113.6-3.8 114.69-4.44 115.49-5.42 116.3-6.4 116.81-8.01 117.32-9.62 117.32-11.65L117.32-11.65Q117.32-13.94 116.79-15.71 116.25-17.48 115.42-18.51 114.59-19.53 113.47-20.19 112.34-20.85 111.32-21.07 110.29-21.29 109.22-21.29ZM136.76-24.58L136.76-24.58Q139.44-24.58 141.31-23.96 143.18-23.34 144.19-22.14 145.2-20.95 145.64-19.48 146.08-18.02 146.08-16.11L146.08-16.11 146.08 0 143.25 0 142.32-2.2Q139.37 0.49 135.53 0.49L135.53 0.49Q132.12 0.49 129.75-1.57 127.38-3.64 127.38-6.4L127.38-6.4Q127.38-7.86 127.92-9.03 128.45-10.21 129.47-10.99 130.48-11.77 131.77-12.32 133.07-12.87 134.79-13.16 136.51-13.45 138.24-13.57 139.98-13.7 142.05-13.7L142.05-13.7 142.05-15.6Q142.05-16.43 141.99-17.04 141.93-17.65 141.59-18.51 141.25-19.36 140.66-19.91 140.08-20.46 138.9-20.86 137.73-21.26 136.12-21.26L136.12-21.26Q133.63-21.26 129.68-20.17L129.68-20.17 128.92-23.1Q132.92-24.58 136.76-24.58ZM142.05-5.13L142.05-10.67 140.56-10.67Q139.17-10.67 138.15-10.62 137.12-10.57 135.74-10.34 134.36-10.11 133.48-9.69 132.6-9.28 131.98-8.48 131.36-7.69 131.36-6.59L131.36-6.59Q131.36-5.05 132.91-3.86 134.46-2.66 136.61-2.66L136.61-2.66Q139.76-2.66 142.05-5.13L142.05-5.13ZM155.11 0L155.11-36.89 159.12-36.89 159.12-22.97Q162.27-24.61 165.56-24.61L165.56-24.61Q167.03-24.61 168.44-24.26 169.86-23.9 171.29-23.01 172.71-22.12 173.79-20.78 174.86-19.43 175.53-17.26 176.21-15.09 176.21-12.35L176.21-12.35Q176.21-6.4 173.04-2.95 169.88 0.49 164.85 0.49L164.85 0.49Q161.56 0.49 158.38-1.12L158.38-1.12 157.9 0 155.11 0ZM164.19-21.29L164.19-21.29Q161.58-21.29 159.12-20L159.12-20 159.12-3.78Q161.73-2.66 164.27-2.66L164.27-2.66Q165.39-2.66 166.44-2.91 167.49-3.15 168.58-3.8 169.66-4.44 170.47-5.42 171.27-6.4 171.79-8.01 172.3-9.62 172.3-11.65L172.3-11.65Q172.3-13.94 171.76-15.71 171.23-17.48 170.4-18.51 169.57-19.53 168.44-20.19 167.32-20.85 166.29-21.07 165.27-21.29 164.19-21.29ZM191.73-24.58L191.73-24.58Q194.42-24.58 196.28-23.96 198.15-23.34 199.16-22.14 200.18-20.95 200.62-19.48 201.06-18.02 201.06-16.11L201.06-16.11 201.06 0 198.22 0 197.3-2.2Q194.34 0.49 190.51 0.49L190.51 0.49Q187.09 0.49 184.72-1.57 182.36-3.64 182.36-6.4L182.36-6.4Q182.36-7.86 182.89-9.03 183.43-10.21 184.44-10.99 185.46-11.77 186.75-12.32 188.04-12.87 189.77-13.16 191.49-13.45 193.22-13.57 194.95-13.7 197.03-13.7L197.03-13.7 197.03-15.6Q197.03-16.43 196.97-17.04 196.91-17.65 196.56-18.51 196.22-19.36 195.64-19.91 195.05-20.46 193.88-20.86 192.71-21.26 191.1-21.26L191.1-21.26Q188.61-21.26 184.65-20.17L184.65-20.17 183.89-23.1Q187.9-24.58 191.73-24.58ZM197.03-5.13L197.03-10.67 195.54-10.67Q194.15-10.67 193.12-10.62 192.1-10.57 190.72-10.34 189.34-10.11 188.46-9.69 187.58-9.28 186.96-8.48 186.34-7.69 186.34-6.59L186.34-6.59Q186.34-5.05 187.89-3.86 189.44-2.66 191.58-2.66L191.58-2.66Q194.73-2.66 197.03-5.13L197.03-5.13Z" opacity="1" transform="matrix(1,0,0,1,0,0)" fill="#ffffff" class="wordmark-text-0" data-fill-palette-color="primary" id="text-0"></path></svg></g></svg></g><g transform="matrix(1,0,0,1,0,92.33837224834937)"><svg viewBox="0 0 395.52 46.16634741672835" height="46.16634741672835" width="395.52"><g transform="matrix(1,0,0,1,0,0)"><svg width="395.52" viewBox="1.399999976158142 -34.599998474121094 392.3800048828125 45.79999923706055" height="46.16634741672835" data-palette-color="#7fc37e"><path d="M10.45 0.6L10.45 0.6Q7.85 0.6 5.5-0.35 3.15-1.3 1.4-2.75L1.4-2.75 3.45-5.5Q5.05-4.2 6.73-3.4 8.4-2.6 10.6-2.6L10.6-2.6Q13-2.6 14.2-3.7 15.4-4.8 15.4-6.4L15.4-6.4Q15.4-7.35 14.9-8.05 14.4-8.75 13.63-9.28 12.85-9.8 11.85-10.2 10.85-10.6 9.85-11L9.85-11Q8.55-11.45 7.25-12.03 5.95-12.6 4.93-13.43 3.9-14.25 3.25-15.35 2.6-16.45 2.6-18L2.6-18Q2.6-19.45 3.18-20.73 3.75-22 4.83-22.93 5.9-23.85 7.45-24.38 9-24.9 10.95-24.9L10.95-24.9Q13.25-24.9 15.18-24.1 17.1-23.3 18.5-22.15L18.5-22.15 16.55-19.55Q15.3-20.5 13.95-21.1 12.6-21.7 11-21.7L11-21.7Q8.7-21.7 7.63-20.65 6.55-19.6 6.55-18.2L6.55-18.2Q6.55-17.35 7-16.73 7.45-16.1 8.2-15.63 8.95-15.15 9.93-14.78 10.9-14.4 11.95-14L11.95-14Q13.25-13.5 14.58-12.95 15.9-12.4 16.95-11.58 18-10.75 18.68-9.55 19.35-8.35 19.35-6.65L19.35-6.65Q19.35-5.15 18.78-3.85 18.2-2.55 17.07-1.55 15.95-0.55 14.28 0.03 12.6 0.6 10.45 0.6ZM31.79 0L27.69 0 27.69-24.3 31.09-24.3 31.44-20.8 31.59-20.8Q33.19-22.55 35.06-23.73 36.94-24.9 39.14-24.9L39.14-24.9Q41.94-24.9 43.51-23.68 45.09-22.45 45.84-20.25L45.84-20.25Q47.74-22.35 49.66-23.63 51.59-24.9 53.84-24.9L53.84-24.9Q57.59-24.9 59.41-22.5 61.24-20.1 61.24-15.4L61.24-15.4 61.24 0 57.14 0 57.14-14.85Q57.14-18.3 56.04-19.83 54.94-21.35 52.64-21.35L52.64-21.35Q49.89-21.35 46.54-17.6L46.54-17.6 46.54 0 42.44 0 42.44-14.85Q42.44-18.3 41.34-19.83 40.24-21.35 37.89-21.35L37.89-21.35Q35.14-21.35 31.79-17.6L31.79-17.6 31.79 0ZM77.38 0.6L77.38 0.6Q74.33 0.6 72.3-1.2 70.28-3 70.28-6.3L70.28-6.3Q70.28-10.3 73.83-12.43 77.38-14.55 85.18-15.4L85.18-15.4Q85.18-16.55 84.95-17.65 84.73-18.75 84.18-19.6 83.63-20.45 82.65-20.98 81.68-21.5 80.18-21.5L80.18-21.5Q78.08-21.5 76.23-20.7 74.38-19.9 72.93-18.9L72.93-18.9 71.33-21.75Q73.03-22.85 75.48-23.88 77.93-24.9 80.88-24.9L80.88-24.9Q85.33-24.9 87.33-22.18 89.33-19.45 89.33-14.9L89.33-14.9 89.33 0 85.93 0 85.58-2.9 85.43-2.9Q83.68-1.45 81.68-0.43 79.68 0.6 77.38 0.6ZM78.58-2.7L78.58-2.7Q80.33-2.7 81.88-3.53 83.43-4.35 85.18-5.95L85.18-5.95 85.18-12.7Q82.13-12.3 80.05-11.75 77.98-11.2 76.7-10.45 75.43-9.7 74.85-8.72 74.28-7.75 74.28-6.6L74.28-6.6Q74.28-4.5 75.53-3.6 76.78-2.7 78.58-2.7ZM103.72 0L99.62 0 99.62-24.3 103.02-24.3 103.37-19.9 103.52-19.9Q104.77-22.2 106.54-23.55 108.32-24.9 110.42-24.9L110.42-24.9Q111.87-24.9 113.02-24.4L113.02-24.4 112.22-20.8Q111.62-21 111.12-21.1 110.62-21.2 109.87-21.2L109.87-21.2Q108.32-21.2 106.64-19.95 104.97-18.7 103.72-15.6L103.72-15.6 103.72 0ZM127.26 0.6L127.26 0.6Q125.31 0.6 123.98 0 122.66-0.6 121.83-1.65 121.01-2.7 120.66-4.2 120.31-5.7 120.31-7.5L120.31-7.5 120.31-20.95 116.71-20.95 116.71-24.05 120.51-24.3 121.01-31.1 124.46-31.1 124.46-24.3 131.01-24.3 131.01-20.95 124.46-20.95 124.46-7.45Q124.46-5.2 125.28-3.98 126.11-2.75 128.21-2.75L128.21-2.75Q128.86-2.75 129.61-2.95 130.36-3.15 130.96-3.4L130.96-3.4 131.76-0.3Q130.76 0.05 129.58 0.33 128.41 0.6 127.26 0.6ZM161.38 0.6L161.38 0.6Q158.98 0.6 156.88-0.25 154.78-1.1 153.26-2.73 151.73-4.35 150.86-6.73 149.98-9.1 149.98-12.1L149.98-12.1Q149.98-15.15 150.93-17.53 151.88-19.9 153.48-21.55 155.08-23.2 157.21-24.05 159.33-24.9 161.68-24.9L161.68-24.9Q164.08-24.9 165.78-24.05 167.48-23.2 168.78-22.05L168.78-22.05 166.68-19.35Q165.63-20.3 164.46-20.9 163.28-21.5 161.83-21.5L161.83-21.5Q160.18-21.5 158.78-20.83 157.38-20.15 156.38-18.9 155.38-17.65 154.81-15.93 154.23-14.2 154.23-12.1L154.23-12.1Q154.23-10 154.78-8.3 155.33-6.6 156.31-5.38 157.28-4.15 158.68-3.48 160.08-2.8 161.73-2.8L161.73-2.8Q163.43-2.8 164.86-3.53 166.28-4.25 167.43-5.25L167.43-5.25 169.23-2.5Q167.58-1.05 165.58-0.23 163.58 0.6 161.38 0.6ZM181.32 0L177.22 0 177.22-24.3 180.62-24.3 180.97-19.9 181.12-19.9Q182.37-22.2 184.15-23.55 185.92-24.9 188.02-24.9L188.02-24.9Q189.47-24.9 190.62-24.4L190.62-24.4 189.82-20.8Q189.22-21 188.72-21.1 188.22-21.2 187.47-21.2L187.47-21.2Q185.92-21.2 184.25-19.95 182.57-18.7 181.32-15.6L181.32-15.6 181.32 0ZM198.86 10.45L198.86 10.45Q198.01 10.45 197.31 10.33 196.61 10.2 196.01 9.95L196.01 9.95 196.81 6.7Q197.21 6.8 197.71 6.93 198.21 7.05 198.66 7.05L198.66 7.05Q200.76 7.05 202.09 5.58 203.41 4.1 204.16 1.85L204.16 1.85 204.71 0.05 194.96-24.3 199.21-24.3 204.16-10.85Q204.71-9.25 205.34-7.48 205.96-5.7 206.51-4L206.51-4 206.71-4Q207.26-5.65 207.76-7.45 208.26-9.25 208.76-10.85L208.76-10.85 213.11-24.3 217.11-24.3 207.96 2Q207.31 3.8 206.51 5.35 205.71 6.9 204.61 8.03 203.51 9.15 202.11 9.8 200.71 10.45 198.86 10.45ZM228.55 10.25L224.45 10.25 224.45-24.3 227.85-24.3 228.2-21.5 228.35-21.5Q230-22.9 231.97-23.9 233.95-24.9 236.1-24.9L236.1-24.9Q238.45-24.9 240.25-24.03 242.05-23.15 243.25-21.53 244.45-19.9 245.07-17.63 245.7-15.35 245.7-12.5L245.7-12.5Q245.7-9.4 244.85-6.98 244-4.55 242.55-2.85 241.1-1.15 239.2-0.28 237.3 0.6 235.2 0.6L235.2 0.6Q233.5 0.6 231.82-0.15 230.15-0.9 228.45-2.2L228.45-2.2 228.55 2.05 228.55 10.25ZM234.5-2.85L234.5-2.85Q236-2.85 237.27-3.53 238.55-4.2 239.47-5.43 240.4-6.65 240.92-8.45 241.45-10.25 241.45-12.5L241.45-12.5Q241.45-14.5 241.1-16.15 240.75-17.8 239.97-18.98 239.2-20.15 237.97-20.8 236.75-21.45 235.05-21.45L235.05-21.45Q233.5-21.45 231.92-20.6 230.35-19.75 228.55-18.15L228.55-18.15 228.55-5.4Q230.2-4 231.75-3.43 233.3-2.85 234.5-2.85ZM261.64 0.6L261.64 0.6Q259.69 0.6 258.36 0 257.04-0.6 256.21-1.65 255.39-2.7 255.04-4.2 254.69-5.7 254.69-7.5L254.69-7.5 254.69-20.95 251.09-20.95 251.09-24.05 254.89-24.3 255.39-31.1 258.84-31.1 258.84-24.3 265.39-24.3 265.39-20.95 258.84-20.95 258.84-7.45Q258.84-5.2 259.66-3.98 260.49-2.75 262.59-2.75L262.59-2.75Q263.24-2.75 263.99-2.95 264.74-3.15 265.34-3.4L265.34-3.4 266.14-0.3Q265.14 0.05 263.96 0.33 262.79 0.6 261.64 0.6ZM282.28 0.6L282.28 0.6Q280.03 0.6 278-0.25 275.98-1.1 274.43-2.73 272.88-4.35 271.95-6.73 271.03-9.1 271.03-12.1L271.03-12.1Q271.03-15.15 271.95-17.53 272.88-19.9 274.43-21.55 275.98-23.2 278-24.05 280.03-24.9 282.28-24.9L282.28-24.9Q284.53-24.9 286.55-24.05 288.58-23.2 290.13-21.55 291.68-19.9 292.6-17.53 293.53-15.15 293.53-12.1L293.53-12.1Q293.53-9.1 292.6-6.73 291.68-4.35 290.13-2.73 288.58-1.1 286.55-0.25 284.53 0.6 282.28 0.6ZM282.28-2.8L282.28-2.8Q283.83-2.8 285.13-3.48 286.43-4.15 287.35-5.38 288.28-6.6 288.78-8.3 289.28-10 289.28-12.1L289.28-12.1Q289.28-14.2 288.78-15.93 288.28-17.65 287.35-18.9 286.43-20.15 285.13-20.83 283.83-21.5 282.28-21.5L282.28-21.5Q280.73-21.5 279.43-20.83 278.13-20.15 277.2-18.9 276.28-17.65 275.78-15.93 275.28-14.2 275.28-12.1L275.28-12.1Q275.28-10 275.78-8.3 276.28-6.6 277.2-5.38 278.13-4.15 279.43-3.48 280.73-2.8 282.28-2.8ZM302.77 10.45L302.77 10.45Q301.92 10.45 301.22 10.33 300.52 10.2 299.92 9.95L299.92 9.95 300.72 6.7Q301.12 6.8 301.62 6.93 302.12 7.05 302.57 7.05L302.57 7.05Q304.67 7.05 305.99 5.58 307.32 4.1 308.07 1.85L308.07 1.85 308.62 0.05 298.87-24.3 303.12-24.3 308.07-10.85Q308.62-9.25 309.24-7.48 309.87-5.7 310.42-4L310.42-4 310.62-4Q311.17-5.65 311.67-7.45 312.17-9.25 312.67-10.85L312.67-10.85 317.02-24.3 321.02-24.3 311.87 2Q311.22 3.8 310.42 5.35 309.62 6.9 308.52 8.03 307.42 9.15 306.02 9.8 304.62 10.45 302.77 10.45ZM332.45 0L328.35 0 328.35-24.3 332.45-24.3 332.45 0ZM330.45-29.3L330.45-29.3Q329.25-29.3 328.43-30.05 327.6-30.8 327.6-31.95L327.6-31.95Q327.6-33.15 328.43-33.88 329.25-34.6 330.45-34.6L330.45-34.6Q331.65-34.6 332.48-33.88 333.3-33.15 333.3-31.95L333.3-31.95Q333.3-30.8 332.48-30.05 331.65-29.3 330.45-29.3ZM347.39 0L343.29 0 343.29-24.3 346.69-24.3 347.04-20.8 347.19-20.8Q348.94-22.55 350.87-23.73 352.79-24.9 355.34-24.9L355.34-24.9Q359.19-24.9 360.97-22.5 362.74-20.1 362.74-15.4L362.74-15.4 362.74 0 358.64 0 358.64-14.85Q358.64-18.3 357.54-19.83 356.44-21.35 354.04-21.35L354.04-21.35Q352.14-21.35 350.69-20.4 349.24-19.45 347.39-17.6L347.39-17.6 347.39 0ZM381.48 11.2L381.48 11.2Q379.23 11.2 377.38 10.78 375.53 10.35 374.21 9.5 372.88 8.65 372.16 7.45 371.43 6.25 371.43 4.65L371.43 4.65Q371.43 3.1 372.38 1.7 373.33 0.3 374.98-0.85L374.98-0.85 374.98-1.05Q374.08-1.6 373.46-2.58 372.83-3.55 372.83-5L372.83-5Q372.83-6.55 373.68-7.7 374.53-8.85 375.48-9.5L375.48-9.5 375.48-9.7Q374.28-10.7 373.31-12.38 372.33-14.05 372.33-16.25L372.33-16.25Q372.33-18.25 373.06-19.85 373.78-21.45 375.03-22.58 376.28-23.7 377.96-24.3 379.63-24.9 381.48-24.9L381.48-24.9Q382.48-24.9 383.36-24.73 384.23-24.55 384.93-24.3L384.93-24.3 393.38-24.3 393.38-21.15 388.38-21.15Q389.23-20.3 389.81-19 390.38-17.7 390.38-16.15L390.38-16.15Q390.38-14.2 389.68-12.63 388.98-11.05 387.78-9.98 386.58-8.9 384.96-8.3 383.33-7.7 381.48-7.7L381.48-7.7Q380.58-7.7 379.63-7.93 378.68-8.15 377.83-8.55L377.83-8.55Q377.18-8 376.73-7.33 376.28-6.65 376.28-5.65L376.28-5.65Q376.28-4.5 377.18-3.75 378.08-3 380.58-3L380.58-3 385.28-3Q389.53-3 391.66-1.63 393.78-0.25 393.78 2.8L393.78 2.8Q393.78 4.5 392.93 6.03 392.08 7.55 390.48 8.7 388.88 9.85 386.61 10.53 384.33 11.2 381.48 11.2ZM381.48-10.45L381.48-10.45Q382.53-10.45 383.46-10.85 384.38-11.25 385.11-12 385.83-12.75 386.23-13.83 386.63-14.9 386.63-16.25L386.63-16.25Q386.63-18.95 385.13-20.43 383.63-21.9 381.48-21.9L381.48-21.9Q379.33-21.9 377.83-20.43 376.33-18.95 376.33-16.25L376.33-16.25Q376.33-14.9 376.73-13.83 377.13-12.75 377.86-12 378.58-11.25 379.51-10.85 380.43-10.45 381.48-10.45ZM382.08 8.35L382.08 8.35Q383.83 8.35 385.26 7.93 386.68 7.5 387.68 6.83 388.68 6.15 389.23 5.25 389.78 4.35 389.78 3.4L389.78 3.4Q389.78 1.7 388.53 1.05 387.28 0.4 384.88 0.4L384.88 0.4 380.68 0.4Q379.98 0.4 379.16 0.33 378.33 0.25 377.53 0L377.53 0Q376.23 0.95 375.63 2 375.03 3.05 375.03 4.1L375.03 4.1Q375.03 6.05 376.91 7.2 378.78 8.35 382.08 8.35Z" opacity="1" transform="matrix(1,0,0,1,0,0)" fill="#ffffff" class="slogan-text-1" data-fill-palette-color="secondary" id="text-1"></path></svg></g></svg></g></svg></g></svg></g><g transform="matrix(1,0,0,1,78.76128485913303,0)"><svg viewBox="0 0 237.99743028173393 191.41352257713746" height="191.41352257713746" width="237.99743028173393"><g><svg xmlns="http://www.w3.org/2000/svg" xmlns:xlink="http://www.w3.org/1999/xlink" version="1.1" x="0" y="0" viewBox="0 9.78600025177002 100.0003433227539 80.42699432373047" enable-background="new 0 0 100 100" xml:space="preserve" width="237.99743028173393" height="191.41352257713746" class="icon-icon-0" data-fill-palette-color="accent" id="icon-0"><path d="M49.942 52.994c13.552-0.488 27.103-0.977 40.653-1.465-2.527-4.177-3.159-7.831-7.989-8.461-7.229-0.94-14.458-1.883-21.688-2.826-14.023-1.827-28.05-3.654-42.075-5.48C20.101 36.792 39.724 53.361 49.942 52.994z" fill="#ffffff" data-fill-palette-color="accent"></path><path d="M0 9.786c4.391 7.257 26.615 23.072 32.953 23.886 17.33 2.231 34.657 4.46 51.986 6.688-3.393-5.607-4.18-9.35-10.312-10.959-8.904-2.341-17.812-4.683-26.717-7.023C31.94 18.182 15.97 13.984 0 9.786z" fill="#ffffff" data-fill-palette-color="accent"></path><path d="M63.108 66.207c10.413-2.219 20.826-4.439 31.241-6.66-2.028-3.346-2.034-5.359-5.827-5.189-6.158 0.273-12.314 0.549-18.471 0.822-11.343 0.506-22.686 1.014-34.028 1.518C37.298 58.064 54.94 67.947 63.108 66.207z" fill="#ffffff" data-fill-palette-color="accent"></path><path d="M87.682 90.213c5.725-3.719 7.262-7.721 10.519-13.807 3.651-6.824 1.257-7.844-2.821-14.596-0.417-0.688-5.842 0.232-6.453 0.904-0.745 0.818-0.248 5.455-0.294 6.496C88.315 76.211 87.998 83.213 87.682 90.213z" fill="#ffffff" data-fill-palette-color="accent"></path><path d="M86.35 63.447c-3.795 0.809-8.604 0.191-9.572 4.229-1.373 5.736-2.746 11.475-4.12 17.211C81.904 82.678 86.028 71.582 86.35 63.447z" fill="#ffffff" data-fill-palette-color="accent"></path><path d="M74.666 66.121c-9.148 1.953-8.956 4.611-12.879 13.18C68.007 78.711 73.811 71.941 74.666 66.121z" fill="#ffffff" data-fill-palette-color="accent"></path></svg></g></svg></g><g></g></svg></g><defs></defs></svg><rect width="281.3162959796642" height="247.2" fill="none" stroke="none" visibility="hidden"></rect></g></svg></g></svg>